<?xml version="1.0" encoding="utf-8"?>
<!-- Generator: Adobe Illustrator 26.0.1, SVG Export Plug-In . SVG Version: 6.00 Build 0)  -->
<svg version="1.1" id="Layer_1" xmlns="http://www.w3.org/2000/svg" xmlns:xlink="http://www.w3.org/1999/xlink" x="0px" y="0px"
	 viewBox="0 0 195 52.1" style="enable-background:new 0 0 195 52.1;" xml:space="preserve">
<style type="text/css">
	.st0{clip-path:url(#SVGID_00000145053057027840048740000005459662533538192271_);}
	.st1{fill:#FFFFFF;}
	.st2{fill:#FFC20E;}
	.st3{fill:#FFFFFF;stroke:#FFFFFF;stroke-miterlimit:10;}
</style>
<g>
	<g>
		<defs>
			<rect id="SVGID_1_" x="2.7" y="2.1" width="189.6" height="48"/>
		</defs>
		<clipPath id="SVGID_00000010276437587469364220000012191634878042907302_">
			<use xlink:href="#SVGID_1_"  style="overflow:visible;"/>
		</clipPath>
		<g style="clip-path:url(#SVGID_00000010276437587469364220000012191634878042907302_);">
			<path class="st1" d="M101.8,28.6c0-0.2,0-0.2-0.1-0.4s-0.1-0.2-0.2-0.3c-0.1-0.1-0.2-0.2-0.3-0.2c-0.2-0.1-0.2-0.1-0.4-0.1h-2.3
				c-0.2,0-0.5,0.1-0.6,0.2c-0.2,0.2-0.3,0.3-0.3,0.5c-0.8,2.9-2.5,4.4-5.8,4.4c-4.5,0-5.7-4.1-5.6-8h14.8c0.2,0,0.5-0.1,0.7-0.3
				c0.2-0.2,0.3-0.4,0.3-0.7c0.1-5.4-3.3-11.9-10.9-11.9c-6.8,0-11.4,5-11.4,12.2c0,3.5,0.8,6.2,2.3,8.2h-1.9c-1.8,0-2.3-0.7-2.3-2
				V19.8c0-5.3-2.6-7.9-6.9-7.9c-3.8,0-6.5,2-8.5,5h-0.1v-3.4c0-0.2-0.1-0.5-0.3-0.7c-0.2-0.2-0.4-0.3-0.7-0.3h-8.8
				c-0.2,0-0.5,0.1-0.7,0.3c-0.2,0.2-0.3,0.4-0.3,0.7v1.4c0,0.2,0.1,0.5,0.3,0.7c0.2,0.2,0.4,0.3,0.7,0.3h0.8c2.6,0,3.1,0.5,3.1,2.6
				v11.8c0,1.4-0.6,2-2,2h-2.6c-0.8,0-1.4-0.6-1.4-1.7v-12c0-4.1-0.2-7.1-6.6-7.1h-0.5c-0.2,0-0.5,0.1-0.7,0.3
				c-0.2,0.2-0.3,0.4-0.3,0.7v0.9c0,0.2,0.1,0.5,0.3,0.7c0.2,0.2,0.4,0.3,0.7,0.3l0.3,0.1c1.3,0.2,1,1.1,1,3.6
				c0,6.4-12.6,2.9-14.4,9.9c0.2-1.2,0.4-2.5,0.4-3.8c0-6-2.9-12.2-9.7-12.2c-3.2,0-5.7,1.4-7.7,4.7h-0.1v-3.2
				c0-0.2-0.1-0.5-0.3-0.7c-0.2-0.2-0.4-0.3-0.7-0.3H3.7c-0.2,0-0.5,0.1-0.7,0.3c-0.2,0.2-0.3,0.4-0.3,0.7v1.5
				c0,0.2,0.1,0.5,0.3,0.7c0.2,0.2,0.4,0.3,0.7,0.3h2.1C7,16.3,7.3,17,7.3,18.2v22.6c0,1.5-0.5,2.2-2,2.2H3.6
				c-0.2,0-0.5,0.1-0.7,0.3c-0.2,0.2-0.3,0.4-0.3,0.7v1.4c0,0.2,0.1,0.5,0.3,0.7c0.2,0.2,0.4,0.3,0.7,0.3h13.7
				c0.2,0,0.5-0.1,0.7-0.3c0.2-0.2,0.3-0.4,0.3-0.7V44c0-0.2-0.1-0.5-0.3-0.7c-0.2-0.2-0.5-0.3-0.7-0.3h-2.2c-1.5,0-2-0.7-2-2.2
				v-8.5h0.2c0.8,1.3,2,2.3,3.2,3.1c1.4,0.8,2.9,1.1,4.4,1.1c5.2,0,8.1-3.6,9.2-8C30,29,30,29.5,30,30c0,4.4,3,6.2,6.8,6.2
				c3.1,0,6.2-0.9,8.1-3.6c0.6,3.6,0.2,3.2,8,3.2h12.4c0.2,0,0.5-0.1,0.7-0.3c0.2-0.2,0.3-0.4,0.3-0.7v-1.4c0-0.2-0.1-0.5-0.3-0.7
				c-0.2-0.2-0.4-0.3-0.7-0.3H64c-1.1,0-1.7-0.6-1.7-2v-9c0-3.2,3.2-5.6,5.5-5.6s4.3,0.8,4.3,4.4v10.2c0,1.3-0.5,2-2.1,2h-0.8
				c-0.2,0-0.5,0.1-0.7,0.3c-0.2,0.2-0.3,0.4-0.3,0.7v1.4c0,0.2,0.1,0.5,0.3,0.7c0.2,0.2,0.4,0.3,0.7,0.3h12.4
				c0.2,0,0.5-0.1,0.7-0.3c0.2-0.2,0.3-0.4,0.3-0.7v-1.7c2,2.2,4.9,3.4,8.9,3.4c5.5,0,8.8-2.3,10-6.5
				C101.7,29.3,101.8,28.6,101.8,28.6z M91.1,15.5c3.5,0,4.4,3,4.4,6.1h-9.1C86.5,18.5,87.7,15.5,91.1,15.5L91.1,15.5z M19.1,32.8
				c-3.3,0-5.7-2.7-5.7-8.4s2.5-8.4,5.7-8.4c2.7,0,5,2.1,5,8.4C24.1,29.8,21.8,32.8,19.1,32.8z M44.7,26.5c0,3.2-1.9,6-5.2,6
				c-2,0-2.9-1.1-2.9-3.1c0-2.3,1.5-3.1,2.9-3.7l5.2-2.3V26.5z"/>
			<path class="st1" d="M143,24.9c0.2,0,0.5-0.1,0.7-0.3c0.2-0.2,0.3-0.4,0.3-0.7C144,18.5,140.6,12,133,12c-4.9,0-8.7,2.6-10.4,6.8
				c0.2-0.5,0.2-1,0.2-1.5c0-3.5-2.8-5.4-5.9-5.4c-2.6,0-4.1,1.5-6.1,4.4h-0.2v-2.9c0-0.2-0.1-0.5-0.3-0.7c-0.2-0.2-0.4-0.3-0.7-0.3
				h-8.6c-0.2,0-0.5,0.1-0.7,0.3c-0.2,0.2-0.3,0.4-0.3,0.7v1.4c0,0.2,0.1,0.5,0.3,0.7c0.2,0.2,0.4,0.3,0.7,0.3h1.8c1.4,0,2,0.5,2,2
				v12.6c0,1.3-0.5,1.9-1.7,2h-2.1c-0.2,0-0.5,0.1-0.7,0.3c-0.2,0.2-0.3,0.4-0.3,0.7v1.4c0,0.2,0.1,0.5,0.3,0.7
				c0.2,0.2,0.4,0.3,0.7,0.3h13.7c0.2,0,0.5-0.1,0.7-0.3c0.2-0.2,0.3-0.4,0.3-0.7v-1.4c0-0.2-0.1-0.5-0.3-0.7
				c-0.2-0.2-0.4-0.3-0.7-0.3h-2.5c-1.1-0.1-1.7-0.6-1.7-2v-8.2c0-3.5,2-7.5,6.1-7.5c0.4,0,0.8,0,1.1,0.2s0.7,0.3,1,0.5
				c-1.7,0.1-3.2,1.1-3.2,2.9c0,2,1.6,3.2,3.5,3.2c0.7,0,1.4-0.2,2-0.5s1.1-0.9,1.4-1.6c-0.5,1.6-0.8,3.2-0.8,4.8
				c0,8,4,12.2,11.6,12.2c5.5,0,8.8-2.3,10-6.5c0.2-0.7,0.4-1.5,0.4-1.5c0-0.2,0-0.2-0.1-0.4s-0.1-0.2-0.2-0.3
				c-0.1-0.1-0.2-0.2-0.3-0.2c-0.2-0.1-0.2-0.1-0.4-0.1h-2.3c-0.2,0-0.5,0.1-0.6,0.2c-0.2,0.2-0.3,0.3-0.3,0.5
				c-0.8,2.9-2.5,4.4-5.8,4.4c-4.6,0-5.7-4.1-5.6-8L143,24.9z M132.8,15.5c3.5,0,4.4,3,4.4,6.1h-9.1
				C128.3,18.5,129.5,15.5,132.8,15.5L132.8,15.5z"/>
			<path class="st2" d="M32.9,17.4c0-2.4,2.1-4.4,4.6-4.4s4.6,2,4.6,4.4s-2.1,3.5-4.6,3.5S32.9,19.8,32.9,17.4z"/>
			<path class="st3" d="M179.5,49.3c-0.2,0-0.4-0.1-0.5-0.2c-0.2-0.1-0.2-0.3-0.3-0.5c0-0.2,0-0.4,0.1-0.5s0.2-0.3,0.4-0.4
				c2.9-1.3,3.3-3.2,3.3-5.1V12.3c0-0.2,0.1-0.4,0.2-0.5c0.2-0.2,0.4-0.2,0.5-0.2s0.4,0.1,0.5,0.2c0.2,0.2,0.2,0.4,0.2,0.5v30.4
				c0,2.2-0.5,4.9-4.3,6.5C179.7,49.3,179.6,49.3,179.5,49.3L179.5,49.3z"/>
			<path class="st3" d="M172.2,45.9c-0.2,0-0.3-0.1-0.5-0.2c-0.2-0.1-0.2-0.2-0.3-0.3c-0.1-0.1-0.1-0.2-0.1-0.3c0-0.1,0-0.2,0.1-0.3
				c0-0.1,0.1-0.2,0.2-0.2c0.1-0.1,0.2-0.2,0.2-0.2c2.9-1.3,3.3-3.2,3.3-5.2V4.3c0-0.2,0.1-0.4,0.2-0.5c0.2-0.2,0.4-0.2,0.5-0.2
				c0.2,0,0.4,0.1,0.5,0.2c0.2,0.2,0.2,0.4,0.2,0.5v34.9c0,2.2-0.5,4.9-4.3,6.5C172.5,45.9,172.3,45.9,172.2,45.9L172.2,45.9z"/>
			<path class="st3" d="M165,49.9c-0.2,0-0.4-0.1-0.5-0.2c-0.2-0.1-0.2-0.3-0.3-0.5c0-0.2,0-0.4,0.1-0.5c0.1-0.2,0.2-0.3,0.4-0.4
				c2.9-1.3,3.3-3.2,3.3-5.1V3.8c0-0.2,0.1-0.4,0.2-0.5s0.4-0.2,0.5-0.2c0.2,0,0.4,0.1,0.5,0.2c0.2,0.2,0.2,0.4,0.2,0.5v39.5
				c0,2.2-0.5,4.9-4.3,6.5C165.2,49.8,165.1,49.9,165,49.9L165,49.9z"/>
			<path class="st3" d="M187.4,44.9c-0.2,0-0.4-0.1-0.5-0.2c-0.2-0.1-0.2-0.3-0.3-0.5c-0.1-0.2,0-0.4,0.1-0.5s0.2-0.3,0.4-0.4
				c2.9-1.3,3.3-3.2,3.3-5.1c0-2,0-8.6,0-13.7c0-3.3,0-6,0-6.5c0-2.3-0.8-14.1-17.7-14.1c-9.8,0-17.2,6.4-17.2,15c0,0.2,0,0.7,0,1.2
				c0,0.6,0,1.3,0,1.7c0,0.9-0.2,1.8-0.5,2.6c-0.4,0.8-0.8,1.6-1.5,2.2c0.5,0.5,0.8,1.2,1.1,1.9c0,0.1,2.1,8.6,8,8.6h5.7
				c0.1,0,0.2,0,0.3,0.1c0.1,0.1,0.2,0.1,0.2,0.2c0.1,0.1,0.2,0.2,0.2,0.2c0.1,0.1,0.1,0.2,0.1,0.3c0,0.1,0,0.2-0.1,0.3
				c-0.1,0.1-0.1,0.2-0.2,0.2c-0.1,0.1-0.2,0.2-0.2,0.2c-0.1,0.1-0.2,0.1-0.3,0.1h-5.7c-7.1,0-9.4-9.3-9.6-9.7
				c-0.2-0.6-0.4-1.1-0.7-1.7c-0.1-0.1-0.2-0.2-0.2-0.2c-0.1-0.1-0.1-0.2-0.2-0.4c0-0.2,0-0.3,0.1-0.5c0.1-0.2,0.2-0.2,0.3-0.3
				c0.1-0.1,1.6-1.1,1.6-4c0-0.4,0-1.1,0-1.7c0-0.5,0-1,0-1.2c0-2.3,0.5-4.4,1.4-6.5c0.9-2,2.3-3.8,4-5.3c3.5-3.1,8.2-4.7,13.3-4.7
				c7.4,0,12.9,2.2,16.1,6.4c2,2.7,3.1,5.9,3.2,9.3c0,0.5,0,3.2,0,6.5c0,5.1,0,11.7,0,13.7c0,2.2-0.5,4.9-4.3,6.5
				C187.7,44.9,187.6,44.9,187.4,44.9L187.4,44.9z"/>
			<path class="st1" d="M162.5,21.9c0,0.3-0.1,0.6-0.2,0.8c-0.2,0.2-0.4,0.5-0.7,0.5c-0.3,0.1-0.5,0.2-0.8,0.1
				c-0.3-0.1-0.5-0.2-0.8-0.4c-0.2-0.2-0.3-0.5-0.4-0.8c-0.1-0.3,0-0.6,0.1-0.8c0.1-0.3,0.3-0.5,0.5-0.7c0.2-0.2,0.5-0.2,0.8-0.2
				c0.2,0,0.4,0,0.5,0.1c0.2,0.1,0.3,0.2,0.5,0.3c0.2,0.2,0.2,0.3,0.3,0.5C162.4,21.5,162.5,21.6,162.5,21.9L162.5,21.9z"/>
			<path class="st3" d="M168.4,19.4c-0.1,0-0.2,0-0.3-0.1c-6.4-2.4-9.3-6.5-10.5-9.4c-0.8-1.9-1.2-4-1.1-6c0-0.2,0.2-0.4,0.3-0.5
				s0.4-0.2,0.5-0.2c0.2,0,0.4,0.1,0.5,0.2c0.2,0.2,0.2,0.4,0.2,0.5c0,0.4-0.7,9.7,10.5,13.8c0.2,0.1,0.3,0.2,0.4,0.4
				c0.1,0.2,0.2,0.4,0.1,0.5c0,0.2-0.2,0.4-0.3,0.5C168.8,19.4,168.5,19.4,168.4,19.4L168.4,19.4z"/>
			<path class="st2" d="M158.9,28.8c0-0.9,0.5-1.8,1.1-2.5c0.7-0.7,1.6-1,2.5-1c0.9,0,1.8,0.4,2.5,1c0.7,0.7,1.1,1.5,1.1,2.5
				c0,1.9-1.7,2.7-3.6,2.7C160.6,31.5,158.9,30.7,158.9,28.8z"/>
			<path class="st1" d="M39.2,45c0,0.4,0.2,0.8,0.3,1.1c0.2,0.3,0.5,0.6,0.9,0.8s0.8,0.2,1.1,0.2c0.4-0.1,0.8-0.3,1.1-0.5
				c0.3-0.3,0.5-0.6,0.5-1.1c0.1-0.4,0.1-0.8-0.1-1.1c-0.2-0.4-0.4-0.7-0.8-0.9c-0.3-0.2-0.8-0.4-1.1-0.4c-0.5,0-1.1,0.2-1.4,0.6
				C39.4,44.1,39.2,44.5,39.2,45L39.2,45z M37.9,45c0-0.7,0.2-1.4,0.5-1.9c0.4-0.6,0.9-1,1.5-1.3s1.3-0.4,2-0.2
				c0.7,0.2,1.3,0.5,1.7,0.9c0.5,0.5,0.8,1.1,1,1.7s0.1,1.4-0.2,2c-0.2,0.6-0.7,1.1-1.2,1.5c-0.5,0.4-1.2,0.6-1.9,0.6
				c-0.9,0-1.7-0.3-2.3-0.9C38.2,46.8,37.9,45.9,37.9,45z"/>
			<path class="st1" d="M50.6,47.1c0.2,0,0.4,0,0.5-0.1c0.2-0.1,0.3-0.2,0.5-0.3s0.2-0.3,0.3-0.5c0.1-0.2,0.1-0.4,0.1-0.5
				s0-0.4-0.1-0.5s-0.2-0.3-0.3-0.5c-0.2-0.2-0.3-0.2-0.5-0.3c-0.2,0-0.3,0-0.5,0c-0.2,0-0.4,0-0.5,0.1c-0.2,0.1-0.3,0.2-0.5,0.3
				c-0.2,0.2-0.2,0.3-0.3,0.5c-0.1,0.2-0.1,0.4-0.1,0.5s0,0.4,0.1,0.5s0.2,0.3,0.3,0.5s0.3,0.2,0.5,0.3
				C50.3,47.1,50.4,47.1,50.6,47.1L50.6,47.1z M49.4,44c0.2-0.2,0.4-0.3,0.7-0.5c0.2-0.1,0.5-0.2,0.8-0.2c0.7,0,1.3,0.2,1.7,0.7
				c0.5,0.5,0.7,1.1,0.7,1.7s-0.2,1.3-0.7,1.7c-0.5,0.5-1.1,0.8-1.7,0.8c-0.3,0-0.5,0-0.8-0.2c-0.2-0.1-0.5-0.2-0.7-0.5v2h-1.3v-6.2
				h1.3V44z"/>
			<path class="st1" d="M56.5,44.5c-0.2,0-0.4,0-0.5,0.1c-0.2,0.1-0.3,0.2-0.5,0.3c-0.2,0.2-0.2,0.3-0.3,0.5
				c-0.1,0.2-0.1,0.4-0.1,0.5s0,0.4,0.1,0.5c0.1,0.2,0.2,0.3,0.3,0.5c0.2,0.2,0.3,0.2,0.5,0.3c0.2,0.1,0.3,0.1,0.5,0.1
				c0.2,0,0.4,0,0.5-0.1c0.2-0.1,0.3-0.2,0.5-0.3s0.2-0.3,0.3-0.5s0.1-0.4,0.1-0.5s0-0.4-0.1-0.5s-0.2-0.3-0.3-0.5
				c-0.2-0.2-0.3-0.2-0.5-0.3C56.9,44.5,56.7,44.5,56.5,44.5L56.5,44.5z M57.2,42.1c0.4,0,0.5-0.4,0.5-0.5l0.8,0.2
				C58.4,42.2,58,43,57.3,43c-0.8,0-0.8-0.5-1.3-0.5c-0.4,0-0.5,0.4-0.5,0.5l-0.8-0.2c0.2-0.5,0.5-1.1,1.1-1.1
				C56.6,41.6,56.7,42.1,57.2,42.1L57.2,42.1z M57.7,47.7c-0.2,0.2-0.4,0.3-0.7,0.5c-0.2,0.1-0.5,0.2-0.8,0.2
				c-0.7,0-1.3-0.2-1.7-0.7c-0.5-0.5-0.7-1.1-0.7-1.7s0.2-1.3,0.7-1.7c0.5-0.5,1.1-0.7,1.7-0.7c0.3,0,0.5,0,0.8,0.2
				c0.2,0.1,0.5,0.2,0.7,0.5v-0.5H59v4.7h-1.3V47.7z"/>
			<path class="st1" d="M61.3,45.9c0,0.2,0,0.4,0.1,0.5s0.2,0.3,0.3,0.5s0.3,0.2,0.5,0.3c0.2,0.1,0.3,0.1,0.5,0.1
				c0.3,0,0.5-0.1,0.8-0.2c0.2-0.2,0.4-0.4,0.5-0.6c0.1-0.2,0.2-0.5,0.1-0.8c-0.1-0.2-0.2-0.5-0.4-0.7c-0.2-0.2-0.5-0.3-0.7-0.4
				c-0.2-0.1-0.5,0-0.8,0.1c-0.2,0.1-0.5,0.3-0.6,0.5S61.3,45.6,61.3,45.9L61.3,45.9z M60,45.9c0-0.5,0.1-1,0.4-1.4
				c0.3-0.5,0.7-0.8,1.1-1c0.5-0.2,1-0.3,1.5-0.2c0.5,0.1,1,0.3,1.4,0.7s0.6,0.8,0.8,1.3c0.1,0.5,0.1,1-0.2,1.5
				c-0.2,0.5-0.5,0.9-1,1.1c-0.5,0.2-0.9,0.4-1.4,0.4c-0.7,0-1.3-0.2-1.8-0.7C60.3,47.1,60.1,46.5,60,45.9"/>
			<path class="st1" d="M71,44.5c-0.2,0-0.4,0-0.5,0.1c-0.2,0.1-0.3,0.2-0.5,0.3c-0.2,0.2-0.2,0.3-0.3,0.5s-0.1,0.4-0.1,0.5
				s0,0.4,0.1,0.5s0.2,0.3,0.3,0.5c0.2,0.2,0.3,0.2,0.5,0.3c0.2,0.1,0.3,0.1,0.5,0.1c0.2,0,0.4,0,0.5-0.1c0.2-0.1,0.3-0.2,0.5-0.3
				c0.2-0.2,0.2-0.3,0.3-0.5c0.1-0.2,0.1-0.4,0.1-0.5s0-0.4-0.1-0.5c-0.1-0.2-0.2-0.3-0.3-0.5c-0.2-0.2-0.3-0.2-0.5-0.3
				C71.3,44.5,71.2,44.5,71,44.5L71,44.5z M72.2,47.7c-0.2,0.2-0.4,0.3-0.7,0.5c-0.2,0.1-0.5,0.2-0.8,0.2c-0.7,0-1.3-0.2-1.7-0.7
				c-0.5-0.5-0.7-1.1-0.7-1.7s0.2-1.3,0.7-1.7c0.5-0.5,1.1-0.7,1.7-0.7c0.3,0,0.5,0,0.8,0.2c0.2,0.2,0.5,0.2,0.7,0.5v-2.3h1.3v6.4
				h-1.3V47.7z"/>
			<path class="st1" d="M75.9,45.4h2.3c-0.1-0.2-0.2-0.5-0.4-0.7c-0.2-0.2-0.5-0.2-0.8-0.2s-0.6,0.1-0.8,0.2
				C76,44.9,75.9,45.1,75.9,45.4z M74.5,45.9c0-2,1.7-2.4,2.6-2.4c0.3,0,0.6,0.1,0.9,0.2c0.3,0.1,0.5,0.3,0.8,0.5
				c0.2,0.2,0.4,0.5,0.5,0.8c0.2,0.3,0.2,0.6,0.2,0.9c0,0.4,0,0.6,0,0.6h-3.7c0.2,0.8,1,0.8,1.3,0.8c0.2,0,0.5-0.1,0.7-0.2
				s0.4-0.2,0.5-0.4l1,0.6c-0.2,0.4-0.6,0.6-1,0.8c-0.3,0.1-0.8,0.2-1.2,0.2C76.2,48.3,74.6,47.7,74.5,45.9"/>
			<path class="st1" d="M85.4,44.5c-0.2,0-0.4,0-0.5,0.1c-0.2,0.1-0.3,0.2-0.5,0.3c-0.2,0.2-0.2,0.3-0.3,0.5s-0.1,0.3-0.1,0.5
				c0,0.2,0,0.4,0.1,0.5s0.2,0.3,0.3,0.5c0.2,0.2,0.3,0.2,0.5,0.3c0.2,0.1,0.3,0.1,0.5,0.1c0.2,0,0.4,0,0.5-0.1
				c0.2-0.1,0.3-0.2,0.5-0.3s0.2-0.3,0.3-0.5s0.1-0.4,0.1-0.5s0-0.4-0.1-0.5s-0.2-0.3-0.3-0.5c-0.2-0.2-0.3-0.2-0.5-0.3
				C85.7,44.5,85.6,44.5,85.4,44.5z M87.9,43.5v6.2h-1.3v-2c-0.2,0.2-0.4,0.4-0.7,0.5c-0.2,0.1-0.5,0.2-0.8,0.2
				c-0.7,0-1.3-0.2-1.7-0.7c-0.5-0.5-0.7-1.1-0.7-1.7s0.2-1.3,0.7-1.7c0.5-0.5,1.1-0.7,1.7-0.7c0.3,0,0.5,0,0.8,0.2s0.5,0.2,0.7,0.5
				v-0.5L87.9,43.5z"/>
			<path class="st1" d="M89.1,46.2v-2.8h1.3v2.8c0,0.2,0,0.2,0.1,0.4s0.1,0.2,0.2,0.3c0.1,0.1,0.2,0.2,0.3,0.2
				c0.2,0.1,0.2,0.1,0.4,0.1c0.4,0,0.9-0.2,0.9-1.2v-2.5h1.3v4.7h-1.3v-0.4c-0.2,0.2-0.4,0.3-0.6,0.4c-0.2,0.1-0.5,0.2-0.7,0.2
				C89.6,48.3,89.2,47.4,89.1,46.2"/>
			<path class="st1" d="M95.8,45.4h2.3c-0.1-0.2-0.2-0.5-0.4-0.7c-0.2-0.2-0.5-0.2-0.8-0.2s-0.6,0.1-0.8,0.2
				C96,44.9,95.9,45.1,95.8,45.4z M94.5,45.9c0-2,1.7-2.4,2.6-2.4c0.3,0,0.6,0.1,0.9,0.2c0.3,0.1,0.5,0.3,0.8,0.5
				c0.2,0.2,0.4,0.5,0.5,0.8c0.2,0.3,0.2,0.6,0.2,0.9c0,0.2,0,0.4,0,0.6h-3.7c0.2,0.8,1.1,0.8,1.3,0.8c0.2,0,0.5-0.1,0.7-0.2
				s0.4-0.2,0.5-0.4l1,0.6c-0.2,0.4-0.6,0.6-1,0.8c-0.4,0.2-0.8,0.3-1.2,0.3C96.2,48.3,94.5,47.7,94.5,45.9"/>
			<path class="st1" d="M100.6,43.5h1.3v4.7h-1.3V43.5z M101.2,43c-0.2,0-0.3-0.1-0.4-0.2c-0.1-0.1-0.2-0.2-0.2-0.3
				c-0.1-0.2-0.1-0.2,0-0.4c0-0.2,0.1-0.2,0.2-0.4c0.1-0.1,0.2-0.2,0.4-0.2s0.3,0,0.4,0.1c0.2,0.1,0.2,0.2,0.3,0.2
				c0.1,0.1,0.2,0.2,0.2,0.4s-0.1,0.4-0.2,0.5C101.6,42.9,101.4,43,101.2,43"/>
			<path class="st1" d="M103.9,43c-0.2,0-0.4-0.1-0.5-0.2c-0.2-0.2-0.2-0.3-0.2-0.5s0.1-0.4,0.2-0.5c0.2-0.1,0.3-0.2,0.5-0.2
				c0.2,0,0.4,0.1,0.5,0.2c0.2,0.2,0.2,0.3,0.2,0.5s-0.1,0.4-0.2,0.5C104.3,42.9,104.1,43,103.9,43z M104.6,48.1
				c0,1.4-0.7,1.8-1.9,1.8c-0.2,0-0.4,0-0.5-0.1l0.1-1.1c0.2,0.1,0.3,0.1,0.5,0.1c0.6,0,0.6-0.4,0.6-0.7v-4.6h1.3L104.6,48.1z"/>
			<path class="st1" d="M106.9,45.9c0,0.2,0,0.4,0.1,0.5s0.2,0.3,0.3,0.5s0.3,0.2,0.5,0.3c0.2,0.1,0.3,0.1,0.5,0.1
				c0.3,0,0.5-0.1,0.8-0.2c0.2-0.2,0.4-0.4,0.5-0.6c0.1-0.2,0.2-0.5,0.1-0.8c-0.1-0.2-0.2-0.5-0.4-0.7c-0.2-0.2-0.5-0.3-0.7-0.4
				c-0.2-0.1-0.5,0-0.8,0.1c-0.2,0.1-0.5,0.3-0.6,0.5C106.9,45.3,106.9,45.6,106.9,45.9L106.9,45.9z M105.6,45.9
				c0-0.5,0.1-1,0.4-1.4c0.3-0.5,0.7-0.8,1.1-1s1-0.3,1.5-0.2c0.5,0.1,1,0.3,1.4,0.7s0.6,0.8,0.8,1.3c0.1,0.5,0.1,1-0.2,1.5
				c-0.2,0.5-0.5,0.9-1,1.1c-0.5,0.2-0.9,0.5-1.4,0.5c-0.7,0-1.3-0.2-1.8-0.7C105.9,47.1,105.7,46.5,105.6,45.9"/>
		</g>
	</g>
</g>
</svg>
